<svg id="Layer_1" data-name="Layer 1" xmlns="http://www.w3.org/2000/svg" viewBox="0 0 191.21 40.37"><defs><style>.cls-1{fill:#637078;}.cls-2{fill:#be4931;}.cls-3{fill:#ffd64e;}</style></defs><title>Logo_18jan</title><path class="cls-1" d="M4.7,31.19A13.35,13.35,0,0,1,7.21,31a4.4,4.4,0,0,1,2.92.77A2.23,2.23,0,0,1,11,33.63,2.53,2.53,0,0,1,9.22,36v0a2.75,2.75,0,0,1,2.2,2.67,2.87,2.87,0,0,1-.9,2.13,5.35,5.35,0,0,1-3.68,1,16.05,16.05,0,0,1-2.13-.13V31.19Zm1.38,4.36H7.32c1.45,0,2.31-.76,2.31-1.79,0-1.25-.95-1.74-2.34-1.74a5.91,5.91,0,0,0-1.22.09v3.43Zm0,5.1a7.37,7.37,0,0,0,1.15.06c1.42,0,2.73-.52,2.73-2.07S8.71,36.6,7.21,36.6H6.07v4.06Z" transform="translate(-4.52 -1.51)"/><path class="cls-1" d="M19.61,39.62c0,0.79,0,1.49.06,2.09H18.45l-0.08-1.25h0a2.88,2.88,0,0,1-2.53,1.42c-1.2,0-2.64-.66-2.64-3.35V34.05h1.39v4.24c0,1.45.44,2.43,1.71,2.43a2,2,0,0,0,1.83-1.26,2,2,0,0,0,.13-0.71V34.05h1.39v5.56Z" transform="translate(-4.52 -1.51)"/><path class="cls-1" d="M23.47,31.9a0.86,0.86,0,0,1-1.72,0A0.85,0.85,0,0,1,22.62,31,0.83,0.83,0,0,1,23.47,31.9Zm-1.55,9.8V34.05h1.39V41.7H21.92Z" transform="translate(-4.52 -1.51)"/><path class="cls-1" d="M25.62,30.48H27V41.7H25.62V30.48Z" transform="translate(-4.52 -1.51)"/><path class="cls-1" d="M36,30.48v9.25c0,0.68,0,1.45.06,2H34.77L34.7,40.38h0a2.83,2.83,0,0,1-2.61,1.5c-1.85,0-3.27-1.56-3.27-3.89,0-2.54,1.56-4.11,3.43-4.11A2.56,2.56,0,0,1,34.53,35h0V30.48H36Zm-1.39,6.69a2.46,2.46,0,0,0-.06-0.58,2,2,0,0,0-2-1.61c-1.44,0-2.29,1.26-2.29,3s0.76,2.83,2.26,2.83a2.09,2.09,0,0,0,2-1.66,2.42,2.42,0,0,0,.06-0.6V37.17Z" transform="translate(-4.52 -1.51)"/><path class="cls-1" d="M41.28,40.88a0.93,0.93,0,0,1,.95-1A1,1,0,1,1,41.28,40.88Z" transform="translate(-4.52 -1.51)"/><path class="cls-1" d="M48.28,31.19A14.33,14.33,0,0,1,50.91,31a4.36,4.36,0,0,1,3.08.87,2.65,2.65,0,0,1,.84,2,2.8,2.8,0,0,1-2,2.72v0a2.66,2.66,0,0,1,1.56,2.15,17,17,0,0,0,.82,2.92H53.79a13.82,13.82,0,0,1-.71-2.54c-0.32-1.47-.88-2-2.13-2.07h-1.3V41.7H48.28V31.19ZM49.65,36h1.41c1.47,0,2.4-.81,2.4-2,0-1.38-1-2-2.45-2a5.65,5.65,0,0,0-1.36.13V36Z" transform="translate(-4.52 -1.51)"/><path class="cls-1" d="M57.57,38.13a2.45,2.45,0,0,0,2.62,2.66,5,5,0,0,0,2.12-.4l0.24,1a6.2,6.2,0,0,1-2.54.47A3.55,3.55,0,0,1,56.24,38c0-2.31,1.36-4.12,3.59-4.12,2.5,0,3.16,2.2,3.16,3.6a5.24,5.24,0,0,1,0,.65H57.57Zm4.08-1a2,2,0,0,0-1.93-2.26,2.31,2.31,0,0,0-2.13,2.26h4.06Z" transform="translate(-4.52 -1.51)"/><path class="cls-1" d="M64.71,36.12c0-.79,0-1.44-0.06-2.07h1.23L66,35.32h0a2.81,2.81,0,0,1,2.53-1.44c1.06,0,2.7.63,2.7,3.26V41.7H69.83V37.29c0-1.23-.46-2.26-1.77-2.26a2,2,0,0,0-1.86,1.42,2,2,0,0,0-.1.65v4.6H64.71V36.12Z" transform="translate(-4.52 -1.51)"/><path class="cls-1" d="M80.4,37.82a3.74,3.74,0,0,1-3.81,4.06,3.64,3.64,0,0,1-3.67-3.94,3.74,3.74,0,0,1,3.79-4.06A3.62,3.62,0,0,1,80.4,37.82Zm-6.07.08c0,1.68,1,2.94,2.32,2.94s2.32-1.25,2.32-3c0-1.3-.65-2.94-2.29-2.94S74.33,36.44,74.33,37.89Z" transform="translate(-4.52 -1.51)"/><path class="cls-1" d="M82.58,34.05l1.5,4.3a19.57,19.57,0,0,1,.62,2h0c0.17-.63.4-1.26,0.65-2l1.49-4.3h1.45l-3,7.65H84l-2.91-7.65h1.49Z" transform="translate(-4.52 -1.51)"/><path class="cls-1" d="M93.81,41.7l-0.11-1h0a2.85,2.85,0,0,1-2.34,1.14A2.18,2.18,0,0,1,89,39.68c0-1.85,1.64-2.86,4.6-2.84V36.68a1.58,1.58,0,0,0-1.74-1.77,3.81,3.81,0,0,0-2,.57l-0.32-.92A4.75,4.75,0,0,1,92,33.88c2.34,0,2.91,1.6,2.91,3.13v2.86a10.81,10.81,0,0,0,.13,1.83H93.81Zm-0.21-3.9c-1.52,0-3.24.24-3.24,1.72a1.23,1.23,0,0,0,1.31,1.33,1.9,1.9,0,0,0,1.85-1.28,1.46,1.46,0,0,0,.08-0.44V37.8Z" transform="translate(-4.52 -1.51)"/><path class="cls-1" d="M98.81,31.86v2.2h2v1.06h-2v4.12c0,0.95.27,1.49,1,1.49a3.08,3.08,0,0,0,.81-0.09l0.06,1a3.4,3.4,0,0,1-1.23.19,1.93,1.93,0,0,1-1.5-.58,2.83,2.83,0,0,1-.54-2V35.11H96.26V34.05h1.19V32.22Z" transform="translate(-4.52 -1.51)"/><path class="cls-1" d="M103,38.13a2.45,2.45,0,0,0,2.62,2.66,5,5,0,0,0,2.12-.4l0.24,1a6.2,6.2,0,0,1-2.54.47A3.55,3.55,0,0,1,101.71,38c0-2.31,1.36-4.12,3.59-4.12,2.5,0,3.16,2.2,3.16,3.6a5.2,5.2,0,0,1,0,.65H103Zm4.08-1a2,2,0,0,0-1.93-2.26,2.31,2.31,0,0,0-2.13,2.26h4.06Z" transform="translate(-4.52 -1.51)"/><path class="cls-1" d="M113.2,40.88a0.93,0.93,0,0,1,.95-1A1,1,0,1,1,113.2,40.88Z" transform="translate(-4.52 -1.51)"/><path class="cls-1" d="M120.2,31.19a19.73,19.73,0,0,1,2.92-.22,6.1,6.1,0,0,1,4.31,1.33,4.91,4.91,0,0,1,1.5,3.82,5.63,5.63,0,0,1-1.53,4.14,6.56,6.56,0,0,1-4.71,1.53,22.2,22.2,0,0,1-2.5-.13V31.19Zm1.38,9.42a8.68,8.68,0,0,0,1.39.08c2.94,0,4.54-1.64,4.54-4.52,0-2.51-1.41-4.11-4.31-4.11a7.82,7.82,0,0,0-1.61.14v8.41Z" transform="translate(-4.52 -1.51)"/><path class="cls-1" d="M137.66,37.82a3.74,3.74,0,0,1-3.81,4.06,3.64,3.64,0,0,1-3.67-3.94A3.74,3.74,0,0,1,134,33.88,3.62,3.62,0,0,1,137.66,37.82Zm-6.07.08c0,1.68,1,2.94,2.32,2.94s2.32-1.25,2.32-3c0-1.3-.65-2.94-2.29-2.94S131.59,36.44,131.59,37.89Z" transform="translate(-4.52 -1.51)"/><path class="cls-1" d="M144.19,31.05V41.7h-1.37V31.05h1.37Z" transform="translate(-4.52 -1.51)"/><path class="cls-1" d="M146.7,36.12c0-.79,0-1.44-0.06-2.07h1.23l0.08,1.26h0a2.81,2.81,0,0,1,2.53-1.44c1.06,0,2.7.63,2.7,3.26V41.7h-1.39V37.29c0-1.23-.46-2.26-1.77-2.26a2,2,0,0,0-1.86,1.42,2,2,0,0,0-.1.65v4.6H146.7V36.12Z" transform="translate(-4.52 -1.51)"/><path class="cls-1" d="M157.08,31.86v2.2h2v1.06h-2v4.12c0,0.95.27,1.49,1,1.49a3.08,3.08,0,0,0,.81-0.09l0.06,1a3.4,3.4,0,0,1-1.23.19,1.93,1.93,0,0,1-1.5-.58,2.83,2.83,0,0,1-.54-2V35.11h-1.19V34.05h1.19V32.22Z" transform="translate(-4.52 -1.51)"/><path class="cls-1" d="M161.31,38.13a2.45,2.45,0,0,0,2.62,2.66,5,5,0,0,0,2.12-.4l0.24,1a6.2,6.2,0,0,1-2.54.47A3.55,3.55,0,0,1,160,38c0-2.31,1.36-4.12,3.59-4.12,2.5,0,3.16,2.2,3.16,3.6a5.25,5.25,0,0,1,0,.65h-5.37Zm4.08-1a2,2,0,0,0-1.93-2.26,2.31,2.31,0,0,0-2.13,2.26h4.06Z" transform="translate(-4.52 -1.51)"/><path class="cls-1" d="M168.46,36.44c0-.9,0-1.68-0.06-2.39h1.22l0,1.5h0.06a2.3,2.3,0,0,1,2.12-1.68,1.51,1.51,0,0,1,.39,0v1.31a2.09,2.09,0,0,0-.47,0A2,2,0,0,0,169.89,37a4,4,0,0,0-.06.65V41.7h-1.38V36.44Z" transform="translate(-4.52 -1.51)"/><path class="cls-1" d="M175.23,31.9a0.86,0.86,0,0,1-1.72,0,0.85,0.85,0,0,1,.87-0.87A0.83,0.83,0,0,1,175.23,31.9Zm-1.55,9.8V34.05h1.39V41.7h-1.39Z" transform="translate(-4.52 -1.51)"/><path class="cls-1" d="M184.3,37.82a3.74,3.74,0,0,1-3.81,4.06,3.64,3.64,0,0,1-3.67-3.94,3.74,3.74,0,0,1,3.79-4.06A3.62,3.62,0,0,1,184.3,37.82Zm-6.07.08c0,1.68,1,2.94,2.32,2.94s2.32-1.25,2.32-3c0-1.3-.65-2.94-2.29-2.94S178.24,36.44,178.24,37.89Z" transform="translate(-4.52 -1.51)"/><path class="cls-1" d="M186.06,36.44c0-.9,0-1.68-0.06-2.39h1.22l0,1.5h0.06a2.3,2.3,0,0,1,2.12-1.68,1.51,1.51,0,0,1,.39,0v1.31a2.09,2.09,0,0,0-.47,0A2,2,0,0,0,187.5,37a4,4,0,0,0-.06.65V41.7h-1.37V36.44Z" transform="translate(-4.52 -1.51)"/><path class="cls-1" d="M191,40.28a3.64,3.64,0,0,0,1.83.55,1.24,1.24,0,0,0,1.49-1.14c0-.66-0.39-1-1.42-1.41-1.37-.49-2-1.25-2-2.17a2.36,2.36,0,0,1,2.64-2.24,3.82,3.82,0,0,1,1.88.47l-0.35,1a3,3,0,0,0-1.56-.44,1.12,1.12,0,0,0-1.28,1c0,0.63.46,0.92,1.45,1.3,1.33,0.51,2,1.17,2,2.31,0,1.34-1,2.29-2.86,2.29a4.36,4.36,0,0,1-2.15-.52Z" transform="translate(-4.52 -1.51)"/><path class="cls-2" d="M28.48,11.25V22H23.4V12.16c0-1-.83-1.93-2.43-1.93a3.77,3.77,0,0,0-1.93.66V22H14V12.16c0-1-.83-1.93-2.43-1.93a4,4,0,0,0-1.93.64V22H4.52V6.81H9.6V7.55a7.09,7.09,0,0,1,3.75-1.16c2.29,0,3.83.69,4.72,1.79a8,8,0,0,1,4.72-1.79C26.79,6.39,28.48,8.52,28.48,11.25Z" transform="translate(-4.52 -1.51)"/><path class="cls-1" d="M47.24,3.59l-1.42,3a12.09,12.09,0,0,0-5.92-1.88c-2,0-3.29.75-3.29,2.11,0,4.42,10.92,2.05,10.89,9.33,0,3.61-3.18,5.83-7.62,5.83a12.43,12.43,0,0,1-8.26-3.21l1.47-2.95a10.66,10.66,0,0,0,6.85,2.95c2.37,0,3.78-.9,3.78-2.46,0-4.5-10.92-2-10.92-9.18,0-3.47,3-5.63,7.36-5.63A13.18,13.18,0,0,1,47.24,3.59Z" transform="translate(-4.52 -1.51)"/><path class="cls-1" d="M64.45,21.87H61.27V19c-1,2-2.84,3-5.24,3-3.37,0-5.38-2.15-5.38-5.66V7.19h3.17v8.25A3.23,3.23,0,0,0,57.24,19c2.54-.05,4-2,4-4.58V7.19h3.18V21.87Z" transform="translate(-4.52 -1.51)"/><path class="cls-1" d="M82.91,14.7c0,4.39-2.76,7.4-7,7.4a5.77,5.77,0,0,1-5.19-2.65v7.89H67.59V7.3h3.17V9.84A5.74,5.74,0,0,1,75.9,7.19C80.06,7.19,82.91,10.23,82.91,14.7Zm-3.2-.11a4.48,4.48,0,1,0-8.94,0c0,2.84,1.85,4.8,4.47,4.8A4.46,4.46,0,0,0,79.71,14.59Z" transform="translate(-4.52 -1.51)"/><path class="cls-1" d="M101.37,14.7c0,4.39-2.76,7.4-7,7.4a5.77,5.77,0,0,1-5.19-2.65v7.89H86.05V7.3h3.17V9.84a5.74,5.74,0,0,1,5.13-2.65C98.52,7.19,101.37,10.23,101.37,14.7Zm-3.2-.11a4.48,4.48,0,1,0-8.94,0c0,2.84,1.85,4.8,4.47,4.8A4.46,4.46,0,0,0,98.17,14.59Z" transform="translate(-4.52 -1.51)"/><path class="cls-1" d="M104.51,22V1.51h3.18V22h-3.18Z" transform="translate(-4.52 -1.51)"/><path class="cls-1" d="M119.3,23.89a4.9,4.9,0,0,1-4.77,3.48,5,5,0,0,1-3.39-1.24l1.35-2.46a3.1,3.1,0,0,0,1.91.72,2.39,2.39,0,0,0,2.24-1.63l0.5-1.1L110.83,7.19h3.28l4.61,11.12L123,7.19h3.18Z" transform="translate(-4.52 -1.51)"/><polygon class="cls-3" points="108.72 0 119.38 0 114.2 11.12 108.72 0"/><path class="cls-1" d="M132.82,20.14a1.74,1.74,0,1,1-3.48,0A1.74,1.74,0,1,1,132.82,20.14Z" transform="translate(-4.52 -1.51)"/><path class="cls-1" d="M149.43,9.48l-1.74,2a5.55,5.55,0,0,0-4.19-1.66c-2.54,0-4.36,1.9-4.36,4.69s1.82,4.69,4.36,4.69a5.47,5.47,0,0,0,4.33-1.77l1.77,1.77A7.47,7.47,0,0,1,143.36,22,7.06,7.06,0,0,1,136,14.56a7.09,7.09,0,0,1,7.39-7.48A7.74,7.74,0,0,1,149.43,9.48Z" transform="translate(-4.52 -1.51)"/><path class="cls-1" d="M168.06,14.53c0,4.42-3.12,7.45-7.64,7.45s-7.67-3-7.67-7.45,3.12-7.45,7.67-7.45S168.06,10.09,168.06,14.53Zm-12.14,0a4.42,4.42,0,0,0,4.5,4.77c2.62,0,4.47-1.93,4.47-4.77A4.49,4.49,0,1,0,155.92,14.56Z" transform="translate(-4.52 -1.51)"/><path class="cls-1" d="M195.73,12.85V22h-3.17V13.73a3.26,3.26,0,0,0-3.48-3.59c-2.51.08-4,2-4,4.58V22h-3.18V13.73a3.24,3.24,0,0,0-3.45-3.59c-2.54.08-4.09,2-4.09,4.58V22H171.2V7.3h3.15v2.84c1-2.07,2.9-3,5.33-3a4.92,4.92,0,0,1,5.1,3.53c0.94-2.46,2.9-3.53,5.57-3.53C193.72,7.19,195.73,9.35,195.73,12.85Z" transform="translate(-4.52 -1.51)"/></svg>